<svg xmlns="http://www.w3.org/2000/svg" width="31.617" height="27.75" viewBox="0 0 31.617 27.75"><defs><style>.a{fill:#b8c5d3;}</style></defs><g transform="translate(-29.327 -520.33)"><path class="a" d="M30.3,27.75a1.311,1.311,0,0,1-.882-.343l-4.835-4.445H7.364a1.332,1.332,0,0,1-1.317-1.345V18.491L2.2,22.028a1.307,1.307,0,0,1-.882.344,1.219,1.219,0,0,1-.534-.115A1.344,1.344,0,0,1,0,21.025V1.345A1.333,1.333,0,0,1,1.318,0H24.252A1.333,1.333,0,0,1,25.57,1.345V5.38H30.3a1.333,1.333,0,0,1,1.318,1.345V26.405a1.341,1.341,0,0,1-.784,1.23A1.216,1.216,0,0,1,30.3,27.75Zm-5.21-7.477a1.289,1.289,0,0,1,.884.35l3.01,2.763V8.069H25.57v8.17a1.333,1.333,0,0,1-1.318,1.345H8.682v2.689ZM2.635,2.689V18.007l3.01-2.763a1.29,1.29,0,0,1,.4-.257,1.306,1.306,0,0,1,.48-.093H22.935V2.689Z" transform="translate(29.326 520.33)"/></g></svg>