<svg xmlns="http://www.w3.org/2000/svg" width="31.584" height="31.584" viewBox="0 0 31.584 31.584">
  <defs>
    <style>.a{fill:#3b86ff;}</style>
  </defs>
  <path class="a" d="M-724.805-79.843a15.689,15.689,0,0,0-11.167-4.625,15.689,15.689,0,0,0-11.167,4.625,15.689,15.689,0,0,0-4.625,11.167,15.689,15.689,0,0,0,4.625,11.167,15.689,15.689,0,0,0,11.167,4.625,15.689,15.689,0,0,0,11.167-4.625,15.689,15.689,0,0,0,4.625-11.167A15.689,15.689,0,0,0-724.805-79.843Zm-11.167,24.491A13.34,13.34,0,0,1-749.3-68.676,13.34,13.34,0,0,1-735.972-82a13.34,13.34,0,0,1,13.325,13.325A13.34,13.34,0,0,1-735.972-55.351Zm-1.234-24.182h2.468v10.919a1.234,1.234,0,0,1-1.234,1.234,1.234,1.234,0,0,1-1.234-1.234Zm-6.25,9.749-3.23-1.038.755-2.349,3.23,1.037Zm.755,4.565-3.23,1.037-.755-2.349,3.23-1.038ZM-741.32-78.2l1.984,2.752-2,1.443-1.984-2.752Zm16,7.383-3.23,1.038-.755-2.349,3.23-1.037Zm-3.365-5.94-1.984,2.752-2-1.443,1.984-2.752Zm-8.522,15.55h2.468v3.393h-2.468Zm-4.132-2.131,2,1.443-1.984,2.752-2-1.443Z" transform="translate(751.764 84.468)" />
</svg>