<svg xmlns="http://www.w3.org/2000/svg" width="30.411" height="28.891" viewBox="0 0 30.411 28.891"><defs><style>.a{fill:#b8c5d3;fill-rule:evenodd;}</style></defs><path class="a" d="M20.247,8.082V5.041H14.164V8.082ZM5.041,11.123V27.85H29.37V11.123ZM29.37,8.082a3.031,3.031,0,0,1,3.041,3.041V27.85a3.031,3.031,0,0,1-3.041,3.041H5.041A3.031,3.031,0,0,1,2,27.85l.015-16.726A3.018,3.018,0,0,1,5.041,8.082h6.082V5.041A3.031,3.031,0,0,1,14.164,2h6.082a3.031,3.031,0,0,1,3.041,3.041V8.082Z" transform="translate(-2 -2)"/></svg>