<svg xmlns="http://www.w3.org/2000/svg" width="31.166" height="27.635" viewBox="0 0 31.166 27.635"><defs><style>.a{fill:none;stroke:#b8c5d3;stroke-width:2px;}</style></defs><g transform="translate(1 0.148)"><path class="a" d="M2.8,7.476q.553.413,3.336,2.455T10.4,13.075q.163.121.692.525t.879.655q.35.25.846.56a4.8,4.8,0,0,0,.936.465,2.454,2.454,0,0,0,.814.155H14.6a2.454,2.454,0,0,0,.814-.155,4.805,4.805,0,0,0,.936-.465q.5-.31.846-.56t.879-.655q.529-.405.692-.525,1.5-1.1,7.617-5.6a7.983,7.983,0,0,0,1.985-2.119,4.732,4.732,0,0,0,.8-2.6A2.719,2.719,0,0,0,28.392.81,2.448,2.448,0,0,0,26.562,0H2.6A2.271,2.271,0,0,0,.675.9,3.615,3.615,0,0,0,0,3.135,4.16,4.16,0,0,0,.9,5.487a8.32,8.32,0,0,0,1.9,1.99Z" transform="translate(0 0.852)"/><path class="a" d="M27.538,1.5q-5.338,3.824-8.1,5.943-.928.723-1.506,1.128A9.109,9.109,0,0,1,16.39,9.4a4.47,4.47,0,0,1-1.79.422h-.033a4.471,4.471,0,0,1-1.79-.422,9.117,9.117,0,0,1-1.538-.827q-.578-.4-1.505-1.128Q7.535,5.736,1.644,1.5A8.787,8.787,0,0,1,0,0V13.677a2.734,2.734,0,0,0,.765,1.947,2.44,2.44,0,0,0,1.839.81H26.562a2.44,2.44,0,0,0,1.839-.81,2.733,2.733,0,0,0,.765-1.947V0a9.154,9.154,0,0,1-1.628,1.5Z" transform="translate(0 10.053)"/></g></svg>