<svg xmlns="http://www.w3.org/2000/svg" width="30.6" height="37.573" viewBox="0 0 30.6 37.573"><defs><style>.a{fill:#b8c5d3;}</style></defs><g transform="translate(582.316 -58.194)"><path class="a" d="M-551.716,62.8a4.764,4.764,0,0,0-4.584-4.608c-7.172.058-14.345.02-21.518.022a4.061,4.061,0,0,0-.75.037,4.609,4.609,0,0,0-3.747,4.523q0,7.11,0,14.22,0,7.147,0,14.294a4.62,4.62,0,0,0,4.465,4.474c1.442,0,2.884,0,4.326,0q6.245,0,12.49,0a1.089,1.089,0,0,0,.979-.445,4.417,4.417,0,0,1,.542-.621l6.943-6.942a2.357,2.357,0,0,1,.3-.28,1.3,1.3,0,0,0,.551-1.166Q-551.724,74.558-551.716,62.8Zm-8.126,29.175V90.944c0-1.016,0-2.031,0-3.046,0-.208.022-.315.278-.313,1.365.013,2.729.006,4.108.006Zm5.592-6.5c-2.169-.016-4.338-.009-6.506-.008A1.1,1.1,0,0,0-562,86.706c0,2.194-.008,4.388.008,6.582,0,.319-.087.383-.392.382q-7.766-.015-15.533-.008a2.147,2.147,0,0,1-2.293-2.31q0-7.184,0-14.367,0-7.2,0-14.4a2.086,2.086,0,0,1,2.274-2.263c7.221,0,14.442.013,21.663-.013a2.257,2.257,0,0,1,2.448,2.475c-.008,3.949,0,7.9,0,11.847,0,3.473,0,6.945.009,10.418C-553.817,85.387-553.908,85.476-554.25,85.473Z"/><path class="a" d="M-476.735,148.332h-7.4c-.509,0-.509,0-.509-.524,0-.413.02-.828-.007-1.24-.019-.285.069-.349.349-.348,2.255.011,4.51,0,6.765,0,2.781,0,5.563.008,8.344,0,.314,0,.407.074.386.388a11.622,11.622,0,0,0,0,1.352c.015.289-.063.381-.368.379-2.28-.015-4.56-.009-6.84-.01h-.714Z" transform="translate(-90.31 -81.402)"/><path class="a" d="M-476.761,234.571c2.531,0,5.062,0,7.593,0,.232,0,.334.041.322.3-.022.5-.022,1,0,1.5.011.255-.077.3-.313.3-2.23-.008-4.461,0-6.691,0-2.819,0-5.639-.007-8.458.006-.317,0-.4-.077-.38-.389a11.09,11.09,0,0,0,0-1.352c-.016-.293.074-.374.371-.373C-481.8,234.576-479.28,234.571-476.761,234.571Z" transform="translate(-90.28 -163.098)"/><path class="a" d="M-476.7,322.485c2.482,0,4.964.01,7.446-.011.379,0,.461.11.438.456a10.366,10.366,0,0,0,0,1.315c.017.281-.058.35-.344.349-2.394-.013-4.789-.006-7.183-.006-2.645,0-5.29-.008-7.935.007-.324,0-.4-.09-.379-.393a12,12,0,0,0,0-1.353c-.015-.287.06-.373.362-.372C-481.768,322.491-479.236,322.485-476.7,322.485Z" transform="translate(-90.302 -244.394)"/></g></svg>